# xmcd
#
# Track frame offsets:
#	150
#	5900
#	28120
#	45075
#	62945
#	108970
#	133015
#	167945
#	196830
#	214270
#	229915
#	284280
#	306445
#	324845
#
# Disc length: 4781 seconds
#
# Revision: 1
# Processed by: cddbd v1.5.1PL2 Copyright (c) Steve Scherf et al.
# Submitted via: EasyCDDAExtractor 9.0.0.1
#
DISCID=c812ab0e
DTITLE=Manowar - Sweden Rock 11-06-99
DYEAR=1999
DGENRE=Hard Rock
TTITLE0=Intro
TTITLE1=Manowar
TTITLE2=Blood Of My Enimies
TTITLE3=Kill With Power
TTITLE4=Gates Of Valhalla
TTITLE5=Joey Di Maio Solo
TTITLE6=Eric Burden Talks
TTITLE7=The Gods Made Heavy Metal
TTITLE8=Metal Warriors
TTITLE9=Kings Of Metal
TTITLE10=Hail And Kill
TTITLE11=Return Of The Warlord
TTITLE12=The Power
TTITLE13=Black Wind Fire and Steel
EXTD=
EXTT0=
EXTT1=
EXTT2=
EXTT3=
EXTT4=
EXTT5=
EXTT6=
EXTT7=
EXTT8=
EXTT9=
EXTT10=
EXTT11=
EXTT12=
EXTT13=
PLAYORDER=
